<!-- Corazón lleno (16x16 pixel art) -->
<svg xmlns="http://www.w3.org/2000/svg" width="16" height="16" viewBox="0 0 16 16">
  <!-- Sombra -->
  <rect x="4" y="3" width="2" height="2" fill="#990033"/>
  <rect x="10" y="3" width="2" height="2" fill="#990033"/>
  <rect x="2" y="5" width="2" height="2" fill="#990033"/>
  <rect x="12" y="5" width="2" height="2" fill="#990033"/>
  <rect x="2" y="7" width="2" height="2" fill="#990033"/>
  <rect x="12" y="7" width="2" height="2" fill="#990033"/>
  <rect x="4" y="9" width="2" height="2" fill="#990033"/>
  <rect x="10" y="9" width="2" height="2" fill="#990033"/>
  <rect x="6" y="11" width="2" height="2" fill="#990033"/>
  <rect x="8" y="11" width="2" height="2" fill="#990033"/>
  <rect x="8" y="13" width="2" height="2" fill="#990033"/>
  
  <!-- Corazón principal -->
  <rect x="4" y="2" width="2" height="2" fill="#ff0055"/>
  <rect x="10" y="2" width="2" height="2" fill="#ff0055"/>
  <rect x="2" y="4" width="2" height="2" fill="#ff0055"/>
  <rect x="4" y="4" width="2" height="2" fill="#ff0055"/>
  <rect x="6" y="4" width="2" height="2" fill="#ff0055"/>
  <rect x="8" y="4" width="2" height="2" fill="#ff0055"/>
  <rect x="10" y="4" width="2" height="2" fill="#ff0055"/>
  <rect x="12" y="4" width="2" height="2" fill="#ff0055"/>
  <rect x="2" y="6" width="2" height="2" fill="#ff0055"/>
  <rect x="4" y="6" width="2" height="2" fill="#ff0055"/>
  <rect x="6" y="6" width="2" height="2" fill="#ff0055"/>
  <rect x="8" y="6" width="2" height="2" fill="#ff0055"/>
  <rect x="10" y="6" width="2" height="2" fill="#ff0055"/>
  <rect x="12" y="6" width="2" height="2" fill="#ff0055"/>
  <rect x="4" y="8" width="2" height="2" fill="#ff0055"/>
  <rect x="6" y="8" width="2" height="2" fill="#ff0055"/>
  <rect x="8" y="8" width="2" height="2" fill="#ff0055"/>
  <rect x="10" y="8" width="2" height="2" fill="#ff0055"/>
  <rect x="6" y="10" width="2" height="2" fill="#ff0055"/>
  <rect x="8" y="10" width="2" height="2" fill="#ff0055"/>
  <rect x="8" y="12" width="2" height="2" fill="#ff0055"/>
  
  <!-- Brillo -->
  <rect x="4" y="4" width="2" height="2" fill="#ff6699"/>
  <rect x="6" y="4" width="2" height="2" fill="#ff6699"/>
  <rect x="4" y="6" width="2" height="2" fill="#ff3377"/>
</svg>
